0
SECTION
2
ENTITIES
0
POLYLINE
8
0
66
1
10
0.0
20
0.0
30
0.0
70
1
0
VERTEX
8
0
10
0.0
20
0.0
30
0.0
0
VERTEX
8
0
10
2460.2
20
0.0
30
0.0
0
VERTEX
8
0
10
2460.2
20
1730.8
30
0.0
0
VERTEX
8
0
10
0.0
20
1730.8
30
0.0
0
SEQEND
0
POLYLINE
8
COURT
66
1
10
0.0
20
0.0
30
0.0
70
1
0
VERTEX
8
COURT
10
157.5
20
151.8
30
0.0
0
VERTEX
8
COURT
10
2301.2
20
151.8
30
0.0
0
VERTEX
8
COURT
10
2301.2
20
1578.2
30
0.0
0
VERTEX
8
COURT
10
157.5
20
1578.2
30
0.0
0
SEQEND
0
LINE
8
COURT
10
1229.4
20
151.8
30
0.0
11
1229.4
21
1578.2
31
0.0
0
CIRCLE
8
COURT
10
1229.4
20
865.1
30
0.0
40
182.9
0
CIRCLE
8
COURT
10
1229.4
20
865.1
30
0.0
40
61.0
0
POLYLINE
8
COURT
66
1
10
0.0
20
0.0
30
0.0
70
1
0
VERTEX
8
COURT
10
157.5
20
670.6
30
0.0
0
VERTEX
8
COURT
10
751.8
20
670.6
30
0.0
0
VERTEX
8
COURT
10
751.8
20
1059.2
30
0.0
0
VERTEX
8
COURT
10
157.5
20
1059.2
30
0.0
0
SEQEND
0
POLYLINE
8
COURT
66
1
10
0.0
20
0.0
30
0.0
70
1
0
VERTEX
8
COURT
10
2301.2
20
670.6
30
0.0
0
VERTEX
8
COURT
10
1706.9
20
670.6
30
0.0
0
VERTEX
8
COURT
10
1706.9
20
1059.2
30
0.0
0
VERTEX
8
COURT
10
2301.2
20
1059.2
30
0.0
0
SEQEND
0
POLYLINE
8
COURT
66
1
10
0.0
20
0.0
30
0.0
70
1
0
VERTEX
8
COURT
10
157.5
20
615.9
30
0.0
0
VERTEX
8
COURT
10
751.8
20
615.9
30
0.0
0
VERTEX
8
COURT
10
751.8
20
1113.6
30
0.0
0
VERTEX
8
COURT
10
157.5
20
1113.6
30
0.0
0
SEQEND
0
POLYLINE
8
COURT
66
1
10
0.0
20
0.0
30
0.0
70
1
0
VERTEX
8
COURT
10
2301.2
20
615.9
30
0.0
0
VERTEX
8
COURT
10
1706.9
20
615.9
30
0.0
0
VERTEX
8
COURT
10
1706.9
20
1113.6
30
0.0
0
VERTEX
8
COURT
10
2301.2
20
1113.6
30
0.0
0
SEQEND
0
CIRCLE
8
COURT
10
751.8
20
865.1
30
0.0
40
182.9
0
CIRCLE
8
COURT
10
1706.9
20
865.1
30
0.0
40
182.9
0
ARC
8
COURT
10
265.2
20
865.1
30
0.0
40
670.6
50
270
51
90
0
ARC
8
COURT
10
2194.6
20
865.1
30
0.0
40
670.6
50
90
51
270
0
ENDSEC
0
EOF